<mxfile host="app.diagrams.net" modified="2023-08-02T10:32:28.412Z" agent="Mozilla/5.0 (Windows NT 10.0; Win64; x64) AppleWebKit/537.36 (KHTML, like Gecko) Chrome/115.0.0.0 Safari/537.36" etag="MmqPk7Dq9wGM8ZhD3-tj" version="21.6.6" type="device">
  <diagram id="C5RBs43oDa-KdzZeNtuy" name="Page-1">
    <mxGraphModel dx="1500" dy="881" grid="1" gridSize="10" guides="1" tooltips="1" connect="1" arrows="1" fold="1" page="1" pageScale="1" pageWidth="827" pageHeight="1169" math="0" shadow="0">
      <root>
        <mxCell id="WIyWlLk6GJQsqaUBKTNV-0" />
        <mxCell id="WIyWlLk6GJQsqaUBKTNV-1" parent="WIyWlLk6GJQsqaUBKTNV-0" />
        <mxCell id="8x-v0JCI6NEiFflAFCNn-6" value="&lt;p style=&quot;margin: 4px 0px 0px; text-align: center; line-height: 180%;&quot;&gt;&lt;b&gt;AnalyticsVelFFTCal&lt;/b&gt;&lt;/p&gt;&lt;hr style=&quot;line-height: 180%;&quot; size=&quot;1&quot;&gt;&lt;div style=&quot;height: 2px; line-height: 180%;&quot;&gt;&lt;div style=&quot;line-height: 180%;&quot;&gt;&lt;span style=&quot;background-color: initial;&quot;&gt;+ assign_sub_topic_dict&lt;/span&gt;&lt;/div&gt;&lt;div style=&quot;line-height: 180%;&quot;&gt;&lt;span style=&quot;background-color: initial;&quot;&gt;+ on_mqtt_connected&lt;/span&gt;&lt;/div&gt;&lt;div style=&quot;line-height: 180%;&quot;&gt;&lt;span style=&quot;background-color: initial;&quot;&gt;+ check_sub_topic_take_action&lt;/span&gt;&lt;/div&gt;&lt;div style=&quot;line-height: 180%;&quot;&gt;&lt;span style=&quot;background-color: initial;&quot;&gt;+ sampling_frequency_enum&lt;/span&gt;&lt;br&gt;&lt;span style=&quot;background-color: initial;&quot;&gt;+ on_raw_data_received&lt;/span&gt;&lt;br&gt;&lt;span style=&quot;background-color: initial;&quot;&gt;+ get_mac_id&lt;/span&gt;&lt;br&gt;&lt;span style=&quot;background-color: initial;&quot;&gt;+ get_sampling_frequency&lt;/span&gt;&lt;br&gt;&lt;span style=&quot;background-color: initial;&quot;&gt;+ get_window_size_timestamp&lt;/span&gt;&lt;/div&gt;&lt;div style=&quot;line-height: 180%;&quot;&gt;&lt;b&gt;+ extract_raw_data&lt;/b&gt;&lt;br&gt;&lt;b&gt;&lt;span style=&quot;background-color: initial;&quot;&gt;+ cal_and_publish_fft_vel&lt;/span&gt;&lt;br&gt;&lt;span style=&quot;background-color: initial;&quot;&gt;+ pub_fft&lt;/span&gt;&lt;br&gt;&lt;span style=&quot;background-color: initial;&quot;&gt;+ pub_vel&lt;/span&gt;&lt;/b&gt;&lt;br&gt;&lt;/div&gt;&lt;/div&gt;" style="verticalAlign=top;align=left;overflow=fill;fontSize=12;fontFamily=Helvetica;html=1;whiteSpace=wrap;" parent="WIyWlLk6GJQsqaUBKTNV-1" vertex="1">
          <mxGeometry x="319" y="30" width="189" height="300" as="geometry" />
        </mxCell>
        <mxCell id="8x-v0JCI6NEiFflAFCNn-8" value="&lt;p style=&quot;margin: 4px 0px 0px; text-align: center; line-height: 180%;&quot;&gt;&lt;b&gt;AnalyticsMQTT&lt;/b&gt;&lt;/p&gt;&lt;hr style=&quot;line-height: 180%;&quot; size=&quot;1&quot;&gt;&lt;div style=&quot;height: 2px; line-height: 180%;&quot;&gt;&lt;div style=&quot;line-height: 180%;&quot;&gt;&lt;span style=&quot;background-color: initial;&quot;&gt;+ publish_service_info&lt;/span&gt;&lt;br&gt;&lt;span style=&quot;background-color: initial;&quot;&gt;+ start_thread&lt;/span&gt;&lt;br&gt;&lt;span style=&quot;background-color: initial;&quot;&gt;+ readfile&lt;/span&gt;&lt;br&gt;&lt;span style=&quot;background-color: initial;&quot;&gt;+ connect_broker&lt;/span&gt;&lt;br&gt;&lt;span style=&quot;background-color: initial;&quot;&gt;+ configure_ssl&lt;/span&gt;&lt;br&gt;&lt;span style=&quot;background-color: initial;&quot;&gt;+ on_connect&lt;/span&gt;&lt;br&gt;&lt;span style=&quot;background-color: initial;&quot;&gt;+ on_dicsonnect&lt;/span&gt;&lt;br&gt;&lt;span style=&quot;background-color: initial;&quot;&gt;+ publish_data&lt;/span&gt;&lt;br&gt;&lt;/div&gt;&lt;div style=&quot;line-height: 180%;&quot;&gt;&lt;span style=&quot;background-color: initial;&quot;&gt;+ publish_logs&lt;/span&gt;&lt;/div&gt;&lt;div style=&quot;line-height: 180%;&quot;&gt;&lt;span style=&quot;background-color: initial;&quot;&gt;+ publish_service_version&lt;/span&gt;&lt;/div&gt;&lt;div style=&quot;line-height: 180%;&quot;&gt;&lt;span style=&quot;background-color: initial;&quot;&gt;+ subscribe_data&lt;/span&gt;&lt;/div&gt;&lt;div style=&quot;line-height: 180%;&quot;&gt;&lt;span style=&quot;background-color: initial;&quot;&gt;+ add_subscribe_data&lt;/span&gt;&lt;/div&gt;&lt;div style=&quot;line-height: 180%;&quot;&gt;&lt;span style=&quot;background-color: initial;&quot;&gt;+ subscribe_extra_topics&lt;/span&gt;&lt;/div&gt;&lt;div style=&quot;line-height: 180%;&quot;&gt;&lt;span style=&quot;background-color: initial;&quot;&gt;+ reconnect_broker&lt;/span&gt;&lt;/div&gt;&lt;div style=&quot;line-height: 180%;&quot;&gt;&lt;span style=&quot;background-color: initial;&quot;&gt;+ multi_loop&lt;/span&gt;&lt;/div&gt;&lt;div style=&quot;line-height: 180%;&quot;&gt;&lt;span style=&quot;background-color: initial;&quot;&gt;+ set_multi_loop_flag&lt;/span&gt;&lt;/div&gt;&lt;div style=&quot;line-height: 180%;&quot;&gt;&lt;span style=&quot;background-color: initial;&quot;&gt;+ disconnect&lt;/span&gt;&lt;/div&gt;&lt;/div&gt;" style="verticalAlign=top;align=left;overflow=fill;fontSize=12;fontFamily=Helvetica;html=1;whiteSpace=wrap;" parent="WIyWlLk6GJQsqaUBKTNV-1" vertex="1">
          <mxGeometry x="331" y="420" width="166" height="420" as="geometry" />
        </mxCell>
        <mxCell id="8x-v0JCI6NEiFflAFCNn-9" value="Use" style="endArrow=open;endSize=12;dashed=1;html=1;rounded=0;exitX=0.5;exitY=1;exitDx=0;exitDy=0;entryX=0.5;entryY=0;entryDx=0;entryDy=0;" parent="WIyWlLk6GJQsqaUBKTNV-1" source="8x-v0JCI6NEiFflAFCNn-6" target="8x-v0JCI6NEiFflAFCNn-8" edge="1">
          <mxGeometry width="160" relative="1" as="geometry">
            <mxPoint x="450" y="360" as="sourcePoint" />
            <mxPoint x="610" y="360" as="targetPoint" />
          </mxGeometry>
        </mxCell>
        <mxCell id="8x-v0JCI6NEiFflAFCNn-10" value="&lt;p style=&quot;margin: 4px 0px 0px; text-align: center; line-height: 180%;&quot;&gt;&lt;b&gt;AnalyticsJSONHandler&lt;/b&gt;&lt;/p&gt;&lt;hr style=&quot;line-height: 180%;&quot; size=&quot;1&quot;&gt;&lt;div style=&quot;height: 2px; line-height: 180%;&quot;&gt;&lt;div style=&quot;line-height: 180%;&quot;&gt;&lt;span style=&quot;background-color: initial;&quot;&gt;+ read_json&lt;/span&gt;&lt;br&gt;&lt;span style=&quot;background-color: initial;&quot;&gt;+ update_json&lt;/span&gt;&lt;br&gt;&lt;span style=&quot;background-color: initial;&quot;&gt;+ get_all_settings&lt;/span&gt;&lt;br&gt;&lt;span style=&quot;background-color: initial;&quot;&gt;+ change_property&lt;/span&gt;&lt;br&gt;&lt;span style=&quot;background-color: initial;&quot;&gt;+ get_property&lt;/span&gt;&lt;br&gt;&lt;br&gt;&lt;/div&gt;&lt;/div&gt;" style="verticalAlign=top;align=left;overflow=fill;fontSize=12;fontFamily=Helvetica;html=1;whiteSpace=wrap;" parent="WIyWlLk6GJQsqaUBKTNV-1" vertex="1">
          <mxGeometry x="80" y="420" width="166" height="155" as="geometry" />
        </mxCell>
        <mxCell id="8x-v0JCI6NEiFflAFCNn-11" value="Use" style="endArrow=open;endSize=12;dashed=1;html=1;rounded=0;entryX=0.993;entryY=0.556;entryDx=0;entryDy=0;entryPerimeter=0;exitX=-0.005;exitY=0.206;exitDx=0;exitDy=0;exitPerimeter=0;" parent="WIyWlLk6GJQsqaUBKTNV-1" source="8x-v0JCI6NEiFflAFCNn-8" target="8x-v0JCI6NEiFflAFCNn-10" edge="1">
          <mxGeometry width="160" relative="1" as="geometry">
            <mxPoint x="310" y="570" as="sourcePoint" />
            <mxPoint x="216.00199999999995" y="553.46" as="targetPoint" />
          </mxGeometry>
        </mxCell>
        <mxCell id="8x-v0JCI6NEiFflAFCNn-12" value="Analytics&lt;br&gt;MQTT.json" style="shape=note;whiteSpace=wrap;html=1;backgroundOutline=1;darkOpacity=0.05;" parent="WIyWlLk6GJQsqaUBKTNV-1" vertex="1">
          <mxGeometry x="133" y="640" width="60" height="90" as="geometry" />
        </mxCell>
        <mxCell id="8x-v0JCI6NEiFflAFCNn-14" value="" style="endArrow=classic;startArrow=classic;html=1;rounded=0;entryX=0.5;entryY=1;entryDx=0;entryDy=0;exitX=0;exitY=0;exitDx=30;exitDy=0;exitPerimeter=0;" parent="WIyWlLk6GJQsqaUBKTNV-1" source="8x-v0JCI6NEiFflAFCNn-12" edge="1">
          <mxGeometry width="50" height="50" relative="1" as="geometry">
            <mxPoint x="162.88" y="630" as="sourcePoint" />
            <mxPoint x="162.88" y="575" as="targetPoint" />
          </mxGeometry>
        </mxCell>
        <mxCell id="8x-v0JCI6NEiFflAFCNn-18" value="Raw Data Packet Structure:&lt;br&gt;{Timestamp, SamplingFreq, WindowSize, N0, N1, N2.......... N8192}" style="text;html=1;strokeColor=#666666;fillColor=#f5f5f5;align=center;verticalAlign=middle;whiteSpace=wrap;rounded=0;fontColor=#333333;" parent="WIyWlLk6GJQsqaUBKTNV-1" vertex="1">
          <mxGeometry x="204" y="910" width="420" height="90" as="geometry" />
        </mxCell>
      </root>
    </mxGraphModel>
  </diagram>
</mxfile>
